<svg id="Capa_1" enable-background="new 0 0 40 40" height="40" viewBox="0 0 512 512" width="40"
     xmlns="http://www.w3.org/2000/svg">
    <g>
        <path d="m362.436 153.474c25.625 0 46.473-20.847 46.473-46.472s-20.848-46.472-46.473-46.472-46.472 20.847-46.472 46.472c0 25.624 20.847 46.472 46.472 46.472zm0-77.944c17.354 0 31.473 14.118 31.473 31.472s-14.118 31.472-31.473 31.472c-17.354 0-31.472-14.118-31.472-31.472s14.118-31.472 31.472-31.472z"/>
        <path d="m507.467 162.017-46.54-20.047c3.797-11.706 5.902-22.34 5.902-34.968 0-57.563-46.831-104.394-104.394-104.394s-104.392 46.831-104.392 104.394c0 16.936 4.198 32.598 10.888 48.167l-12.931 5.57-121.283-52.242c-1.736-.756-4.014-.828-5.934 0l-124.25 53.52c-2.751 1.185-4.533 3.893-4.533 6.888v332.98c0 5.393 5.527 9.016 10.467 6.888l121.283-52.242 121.283 52.242c1.804.778 3.944.857 5.934 0l121.283-52.242 121.283 52.242c4.924 2.121 10.467-1.484 10.467-6.888v-332.98c0-2.995-1.782-5.703-4.533-6.888zm-145.031-144.409c49.292 0 89.394 40.102 89.394 89.394 0 49.096-45.785 103.13-82.236 135.676-4.07 3.649-10.223 3.664-14.313 0-36.802-33.002-82.236-86.44-82.236-135.676-.002-49.292 40.1-89.394 89.391-89.394zm.42 242.8c3.311-.056 6.688-.732 9.894-2.141v136.171l-109.25 47.05v-218.657l37.221-16.029c.085.108.167.216.252.324 4.766 6.007 9.714 11.797 14.779 17.391 21.589 23.816 33.074 36.087 47.104 35.891zm-238.606-84.627v218.658l-64.25 27.67v-218.658zm15 0 109.25 47.05v218.658l-109.25-47.05zm312.75 246.328-64.25-27.67v-148.103c16.299-15.436 31.856-32.633 44.891-50.804.077-.107.155-.211.232-.318l19.127 8.237zm-160.541-227.651-27.959 12.041v-32.658l11.94-5.143c4.765 8.97 10.257 17.642 16.019 25.76zm-42.959 12.041-109.25-47.05v-32.667l109.25 47.059zm-233.5-32.658 109.25-47.059v32.667l-74.717 32.178c-2.751 1.185-4.533 3.893-4.533 6.888v234.99c0 5.481 5.639 8.971 10.467 6.889l68.783-29.623v32.659l-109.25 47.058zm124.25 236.93 109.25 47.05v32.667l-109.25-47.058zm124.25 47.05 109.25-47.05v32.658l-109.25 47.059zm233.5 32.667-109.25-47.058v-32.659l68.783 29.623c4.939 2.131 10.467-1.506 10.467-6.889v-234.99c0-2.995-1.782-5.704-4.533-6.888l-21.078-9.078c.019-.03.036-.059.055-.088 5.642-8.973 10.36-17.804 14.136-26.462l41.42 17.842z"/>
    </g>
</svg>
