<svg xmlns="http://www.w3.org/2000/svg" viewBox="0 0 841.9 595.3">
    <path d="m506.6 136.7-124.5-28c-1-.2-2-.2-3 0l-46.1 10.3c2.5-9.3 3.9-18.7 3.5-28.3-2.1-51.8-41.8-77.9-80.1-77-38.2-.9-78 25.2-80.3 77-.4 9.6 1 19.1 3.5 28.4l-46.4-10.4c-1-.2-2-.2-3 0l-124.6 28c-3.2.7-5.4 3.5-5.4 6.8v347.8c0 2.1 1 4.1 2.6 5.4 1.2 1 2.8 1.5 4.3 1.5.5 0 1-.1 1.5-.2l123.1-27.6 123 27.6c1 .2 2 .2 3 0l123.1-27.6 123 27.6c2 .5 4.2 0 5.8-1.4 1.6-1.3 2.6-3.3 2.6-5.4v-347.7c-.2-3.2-2.4-6-5.6-6.8zm-8.5 114.9-40.3-9.1v-71.5c0-3.2-2.2-6.1-5.4-6.8l-35.7-8c-3.7-.8-7.4 1.5-8.3 5.3-.8 3.7 1.5 7.4 5.3 8.3l30.3 6.8v62.9l-56.5-12.7v-102.6l110.6 24.9zm-359.6 38.4 34.9 7.8v71.5c0 3.2 2.3 6.1 5.4 6.8l35.7 8c.5.1 1 .2 1.5.2 3.2 0 6-2.2 6.8-5.4.8-3.7-1.5-7.4-5.3-8.3l-30.3-6.8v-62.8l61.8 13.9v167.8l-110.6-24.9v-167.8zm124.4 86 110.7-24.9v106.6l-110.7 24.9zm110.8-251.8v212.8l-110.7 24.9v-135.3c3.3-4 6.8-8.2 10.5-12.6 18.6-22 41.8-49.6 54.2-79.5zm-119.3-96.6h1.7.4c31.5-.8 64.3 20.8 66.1 63.7 1.7 41-33.8 83-59.7 113.7-2.3 2.7-4.5 5.3-6.6 7.9-2.1-2.5-4.2-5-6.4-7.6-26-30.7-61.7-72.8-60-113.9 1.8-42.1 33.5-63.8 64.5-63.8zm-15.2 186.7c3.5 4.1 6.7 8 9.8 11.7v74.6l-110.6-24.9v-151.5l46.3 10.4c12.5 30 35.9 57.6 54.5 79.7zm-114.6-90.1v240.9l-110.7 24.8v-240.8zm-110.7 279.9 110.7-24.9v78.5l-110.7 24.9zm373.6 53.7v-216.9l61.9 13.9h.2l48.5 10.9v216.8zm-92-364.8c0-21.6-17.6-39.2-39.2-39.2-21.7 0-39.3 17.6-39.3 39.2s17.6 39.2 39.2 39.2c21.7.1 39.3-17.5 39.3-39.2zm-64.6 0c0-14 11.4-25.4 25.4-25.4s25.4 11.4 25.4 25.4-11.4 25.4-25.4 25.4-25.4-11.4-25.4-25.4z"/>
</svg>
