<?xml version="1.0"?>
<svg xmlns="http://www.w3.org/2000/svg" id="document" viewBox="0 0 64 64" width="40" height="40"><g><g><path d="M52.41,22.65H11.59a1,1,0,0,1-1-1V7.33a6,6,0,0,1,6-6h24a1,1,0,0,1,.73.31L53.14,14.31a1,1,0,0,1,.27.69v6.66A1,1,0,0,1,52.41,22.65Zm-39.83-2H51.41V15.39l-11.34-12H16.55a4,4,0,0,0-4,4V20.65Z"/><path d="M47.45,62.63H16.55a6,6,0,0,1-6-6V46.45a1,1,0,0,1,1-1H52.41a1,1,0,0,1,1,1V56.66A6,6,0,0,1,47.45,62.63ZM12.59,47.45v9.21a4,4,0,0,0,4,4H47.45a4,4,0,0,0,4-4V47.45H12.59Z"/><path d="M52.41,16H40.51a1,1,0,0,1-1-1V2.37a1,1,0,0,1,1.73-.69L53.14,14.31A1,1,0,0,1,52.41,16ZM41.51,14H50.1L41.51,4.89V14Z"/></g><path d="M52.91,47.45H11.09A4.19,4.19,0,0,1,6.9,43.27V24.84a4.19,4.19,0,0,1,4.19-4.19H52.91a4.19,4.19,0,0,1,4.19,4.19V43.27A4.19,4.19,0,0,1,52.91,47.45ZM11.09,22.65A2.19,2.19,0,0,0,8.9,24.84V43.27a2.19,2.19,0,0,0,2.19,2.19H52.91a2.19,2.19,0,0,0,2.19-2.19V24.84a2.19,2.19,0,0,0-2.19-2.19H11.09Z"/><g><path d="M15,27.84h3.28a8.84,8.84,0,0,1,2.19.24A4,4,0,0,1,22.1,29,6.28,6.28,0,0,1,24,34a9.91,9.91,0,0,1-.19,2,6,6,0,0,1-.6,1.66,5.17,5.17,0,0,1-1,1.33,4.31,4.31,0,0,1-1.09.72,5,5,0,0,1-1.27.38,9.7,9.7,0,0,1-1.54.11H15a2.05,2.05,0,0,1-1-.21,1,1,0,0,1-.45-0.58,3.71,3.71,0,0,1-.11-1V29.39a1.62,1.62,0,0,1,.36-1.18A1.62,1.62,0,0,1,15,27.84Zm1,2v8.43h1.91q0.63,0,1,0a3.07,3.07,0,0,0,.74-0.17,2,2,0,0,0,.66-0.38A4.6,4.6,0,0,0,21.49,34a5.41,5.41,0,0,0-.55-2.75,2.47,2.47,0,0,0-1.37-1.16,6.75,6.75,0,0,0-2-.25H15.94Z"/><path d="M31.72,27.63a6.63,6.63,0,0,1,3.32.78,5.08,5.08,0,0,1,2.1,2.23A7.59,7.59,0,0,1,37.84,34a8.3,8.3,0,0,1-.39,2.62,5.66,5.66,0,0,1-1.17,2A5.11,5.11,0,0,1,34.37,40a7.55,7.55,0,0,1-5.21,0,5.18,5.18,0,0,1-1.92-1.33,5.66,5.66,0,0,1-1.16-2.06,8.31,8.31,0,0,1-.39-2.6,8,8,0,0,1,.41-2.63,5.63,5.63,0,0,1,1.19-2,5.15,5.15,0,0,1,1.9-1.28A6.83,6.83,0,0,1,31.72,27.63ZM35.29,34a5.83,5.83,0,0,0-.44-2.36,3.29,3.29,0,0,0-1.26-1.51,3.46,3.46,0,0,0-1.88-.51,3.4,3.4,0,0,0-1.39.28,3.06,3.06,0,0,0-1.1.83,4,4,0,0,0-.73,1.38A6.26,6.26,0,0,0,28.23,34a6.41,6.41,0,0,0,.27,1.91,3.92,3.92,0,0,0,.75,1.42,3.17,3.17,0,0,0,1.12.84,3.53,3.53,0,0,0,3.16-.2,3.34,3.34,0,0,0,1.29-1.49A5.76,5.76,0,0,0,35.29,34Z"/><path d="M50.57,36.34a3.31,3.31,0,0,1-.29,1.28A4.63,4.63,0,0,1,49.36,39a4.69,4.69,0,0,1-1.6,1.08,5.75,5.75,0,0,1-2.27.42,7.93,7.93,0,0,1-1.79-.19,5,5,0,0,1-1.46-.58,4.93,4.93,0,0,1-1.21-1,6.17,6.17,0,0,1-.84-1.31,6.82,6.82,0,0,1-.52-1.55,8.43,8.43,0,0,1-.17-1.74,7.74,7.74,0,0,1,.44-2.69,5.73,5.73,0,0,1,1.25-2,5.45,5.45,0,0,1,1.91-1.28,6.17,6.17,0,0,1,2.33-.44,5.82,5.82,0,0,1,2.69.6,4.86,4.86,0,0,1,1.8,1.49,2.94,2.94,0,0,1,.63,1.67,1.09,1.09,0,0,1-.3.76,1,1,0,0,1-.74.33,1,1,0,0,1-.72-0.23,3.17,3.17,0,0,1-.54-0.79,3.79,3.79,0,0,0-1.16-1.38,2.82,2.82,0,0,0-1.64-.46A3,3,0,0,0,43,30.81a5.33,5.33,0,0,0-.92,3.35,6.21,6.21,0,0,0,.41,2.41A3,3,0,0,0,43.61,38a3.18,3.18,0,0,0,1.74.47,3.06,3.06,0,0,0,1.83-.54,3.25,3.25,0,0,0,1.13-1.58,2.68,2.68,0,0,1,.4-0.8,0.9,0.9,0,0,1,.76-0.31,1.07,1.07,0,0,1,.77.31A1,1,0,0,1,50.57,36.34Z"/></g></g></svg>
