<svg clip-rule="evenodd" fill-rule="evenodd" height="40" stroke-linejoin="round" stroke-miterlimit="2"
     viewBox="0 0 64 64" width="40" xmlns="http://www.w3.org/2000/svg">
    <g id="storage">
        <path d="m61.042 10c0-1.68-1.362-3.042-3.042-3.042-8.71 0-43.29 0-52 0-1.68 0-3.042 1.362-3.042 3.042v8c0 1.68 1.362 3.042 3.042 3.042h52c1.68 0 3.042-1.362 3.042-3.042zm-2.084 0c0-.529-.429-.958-.958-.958-8.71 0-43.29 0-52 0-.529 0-.958.429-.958.958v8c0 .529.429.958.958.958h52c.529 0 .958-.429.958-.958z"/>
        <path d="m61.042 26c0-1.68-1.362-3.042-3.042-3.042-8.71 0-43.29 0-52 0-1.68 0-3.042 1.362-3.042 3.042v8c0 1.68 1.362 3.042 3.042 3.042h52c1.68 0 3.042-1.362 3.042-3.042zm-2.084 0c0-.529-.429-.958-.958-.958-8.71 0-43.29 0-52 0-.529 0-.958.429-.958.958v8c0 .529.429.958.958.958h52c.529 0 .958-.429.958-.958z"/>
        <path d="m13.042 14c0-1.68-1.362-3.042-3.042-3.042s-3.042 1.362-3.042 3.042 1.362 3.042 3.042 3.042 3.042-1.362 3.042-3.042zm-2.084 0c0 .529-.429.958-.958.958s-.958-.429-.958-.958.429-.958.958-.958.958.429.958.958z"/>
        <path d="m13.042 30c0-1.68-1.362-3.042-3.042-3.042s-3.042 1.362-3.042 3.042 1.362 3.042 3.042 3.042 3.042-1.362 3.042-3.042zm-2.084 0c0 .529-.429.958-.958.958s-.958-.429-.958-.958.429-.958.958-.958.958.429.958.958z"/>
        <path d="m13.042 46c0-1.68-1.362-3.042-3.042-3.042s-3.042 1.362-3.042 3.042 1.362 3.042 3.042 3.042 3.042-1.362 3.042-3.042zm-2.084 0c0 .529-.429.958-.958.958s-.958-.429-.958-.958.429-.958.958-.958.958.429.958.958z"/>
        <path d="m21.042 14c0-1.68-1.362-3.042-3.042-3.042s-3.042 1.362-3.042 3.042 1.362 3.042 3.042 3.042 3.042-1.362 3.042-3.042zm-2.084 0c0 .529-.429.958-.958.958s-.958-.429-.958-.958.429-.958.958-.958.958.429.958.958z"/>
        <path d="m21.042 30c0-1.68-1.362-3.042-3.042-3.042s-3.042 1.362-3.042 3.042 1.362 3.042 3.042 3.042 3.042-1.362 3.042-3.042zm-2.084 0c0 .529-.429.958-.958.958s-.958-.429-.958-.958.429-.958.958-.958.958.429.958.958z"/>
        <path d="m21.042 46c0-1.68-1.362-3.042-3.042-3.042s-3.042 1.362-3.042 3.042 1.362 3.042 3.042 3.042 3.042-1.362 3.042-3.042zm-2.084 0c0 .529-.429.958-.958.958s-.958-.429-.958-.958.429-.958.958-.958.958.429.958.958z"/>
        <path d="m29.042 14c0-1.68-1.362-3.042-3.042-3.042s-3.042 1.362-3.042 3.042 1.362 3.042 3.042 3.042 3.042-1.362 3.042-3.042zm-2.084 0c0 .529-.429.958-.958.958s-.958-.429-.958-.958.429-.958.958-.958.958.429.958.958z"/>
        <path d="m29.042 30c0-1.68-1.362-3.042-3.042-3.042s-3.042 1.362-3.042 3.042 1.362 3.042 3.042 3.042 3.042-1.362 3.042-3.042zm-2.084 0c0 .529-.429.958-.958.958s-.958-.429-.958-.958.429-.958.958-.958.958.429.958.958z"/>
        <path d="m29.042 46c0-1.68-1.362-3.042-3.042-3.042s-3.042 1.362-3.042 3.042 1.362 3.042 3.042 3.042 3.042-1.362 3.042-3.042zm-2.084 0c0 .529-.429.958-.958.958s-.958-.429-.958-.958.429-.958.958-.958.958.429.958.958z"/>
        <path d="m33.042 54.958h26.958c.575 0 1.042.467 1.042 1.042s-.467 1.042-1.042 1.042h-56c-.575 0-1.042-.467-1.042-1.042s.467-1.042 1.042-1.042h26.958v-1.916h-24.958c-1.68 0-3.042-1.362-3.042-3.042 0-2.22 0-5.78 0-8 0-1.68 1.362-3.042 3.042-3.042h52c1.68 0 3.042 1.362 3.042 3.042v8c0 1.68-1.362 3.042-3.042 3.042h-24.958zm-27.042-4h52c.529 0 .958-.429.958-.958v-8c0-.529-.429-.958-.958-.958-8.71 0-43.29 0-52 0-.529 0-.958.429-.958.958v8c0 .529.429.958.958.958z"/>
    </g>
</svg>
